# xmcd
#
# Track frame offsets:
#	150
#	14604
#	31524
#	49613
#	65293
#	80077
#	97030
#	113069
#	127249
#	144629
#	160520
#	175670
#	192240
#	208740
#	223781
#	241011
#
# Disc length: 3414 seconds
#
# Revision: 2
# Processed by: cddbd v1.4PL0 Copyright (c) Steve Scherf et al.
# Submitted via: audiograbber 1.80.04
#
DISCID=db0d5410
DTITLE=Seer - Guats Gfühl
DYEAR=2001
DGENRE=Folklore
TTITLE0=Rundumadum
TTITLE1=Der Mann Aus Den Bergen
TTITLE2=Sche Wars Wenns Do Warst
TTITLE3=Allright Beim Veit
TTITLE4=S'Gros Is Greaner
TTITLE5=Amerika Gibts Nit
TTITLE6=Scheibbs Bis Nebraska
TTITLE7=Suder Mi Net O
TTITLE8=Foschingtog
TTITLE9=Guats Gfühl
TTITLE10=2,5 Sekunden
TTITLE11=Die Sennerin Von Altaussee
TTITLE12=Bamhaus
TTITLE13=Hubert Der Huat Brennt
TTITLE14=Der Himmel Dahoam
TTITLE15=Guat
EXTD=BMG Ariola Austria Gmbh
EXTT0=
EXTT1=
EXTT2=
EXTT3=
EXTT4=
EXTT5=
EXTT6=
EXTT7=
EXTT8=
EXTT9=
EXTT10=
EXTT11=
EXTT12=
EXTT13=
EXTT14=
EXTT15=
PLAYORDER=
